<?xml version="1.0" encoding="UTF-8"?>
<!DOCTYPE svg PUBLIC "-//W3C//DTD SVG 1.1//EN" "http://www.w3.org/Graphics/SVG/1.1/DTD/svg11.dtd">
<!-- Creator: CorelDRAW 2020 (64-Bit) -->
<svg xmlns="http://www.w3.org/2000/svg" xml:space="preserve" width="3.33333in" height="3.33333in" version="1.1" style="shape-rendering:geometricPrecision; text-rendering:geometricPrecision; image-rendering:optimizeQuality; fill-rule:evenodd; clip-rule:evenodd"
viewBox="0 0 3333.33 3333.33"
 xmlns:xlink="http://www.w3.org/1999/xlink"
 xmlns:xodm="http://www.corel.com/coreldraw/odm/2003">
 <defs>
  <style type="text/css">
   <![CDATA[
    .str0 {stroke:black;stroke-width:53.33;stroke-miterlimit:2.61313}
    .fil0 {fill:none}
    .fil1 {fill:white;fill-rule:nonzero}
    .fil2 {fill:#A00303;fill-opacity:0.701961}
    .fil3 {fill:#A00303;fill-opacity:0.901961}
   ]]>
  </style>
 </defs>
 <g id="Layer_x0020_1">
  <metadata id="CorelCorpID_0Corel-Layer"/>
  <rect class="fil0 str0" x="443.33" y="433.33" width="2446.67" height="2466.67" rx="447.87" ry="451.53"/>
  <path class="fil1 str0" d="M2550 2120.37c0,-341.76 0,-683.52 0,-1025.28 0,-188.69 -140.17,-341.76 -312.96,-341.76 -379.13,0 -758.27,0 -1137.41,0 -172.8,0 -312.96,153.06 -312.96,341.76 0,341.76 0,683.52 0,1025.28 0,188.69 140.17,341.76 312.96,341.76 233.65,0 467.3,0 700.95,0 -9.64,79.84 -19.28,159.7 -28.92,239.54 141.89,-79.84 283.78,-159.7 425.67,-239.54 13.24,0 26.46,0 39.7,0 172.8,0 312.96,-153.06 312.96,-341.76z"/>
  <g id="_2079715156096">
   <path class="fil2" d="M1415 1291.66c207.11,0 375.01,167.9 375.01,375.01 0,207.11 -167.9,375.01 -375.01,375.01 -207.11,0 -375,-167.9 -375,-375.01 0,-207.11 167.9,-375.01 375,-375.01z"/>
   <path class="fil3" d="M1918.32 1291.66c207.11,0 375.01,167.9 375.01,375.01 0,207.11 -167.9,375.01 -375.01,375.01 -207.11,0 -375.01,-167.9 -375.01,-375.01 0,-207.11 167.9,-375.01 375.01,-375.01z"/>
  </g>
 </g>
</svg>
